Patient4_TMGait_0pt3_03_left_32_EMG.mot
version=1
nRows=26
nColumns=33
inDegrees=no
endheader
time	1LAddLong	2LGlutMax	3LGlutMed	4LIliopsoas	5LSemiMemb	6LBicFemLong	7LRecFem	8LVastMed	9LVastLat	10LGasMed	11LTibAnt	12lTibPost	13LPeroneusLong	14LSol	15LExtDigLong	16LFlexDigLong	17RAddLong	18RGlutMax	19RGlutMed	20RIliopsoas	21RSemiMemb	22RBicFemLong	23RRecFem	24RVastMed	25RVastLat	26RGasMed	27RTibAnt	28RTibPost	29RPeroneusLong	30RSol	31RExtDigLong	32RFlexDigLong
58.79	0.003204	-0.03479	0.019989	0.004272	0.002899	-0.042419	0.021362	0.003052	-0.015869	0.014648	0.054016	0.036011	0.005798	0.007019	-0.047607	-0.001373	0.048828	0.24109	0.60974	0.10101	-0.014954	0.018768	0.22293	-0.34531	-0.13977	0.011139	-0.020752	-0.023956	-0.16739	-0.17792	-0.006714	-0.005798
58.791	0.020447	-0.001831	0.007019	-0.002899	-0.011902	-0.02243	0.011902	0.004425	-0.024261	0.015106	0.010376	0.028992	-0.027618	0.015717	-0.047455	0.004272	0.031128	0.30563	0.56641	0.10254	0.060883	-0.066223	0.17197	-0.18051	-0.20386	0.003357	0.007629	-0.01358	-0.30304	-0.23285	-0.00351	-0.009308
58.792	0.000305	-0.022888	-0.002594	0.009003	-0.00885	-0.043335	0.020142	0.001221	-0.01236	0.013275	-0.00824	0.040283	-0.002441	-0.053864	-0.055542	0.004425	0.002594	0.3569	1.4127	0.014648	0.13641	-0.26032	0.088043	-0.032959	-0.11581	-0.012207	0.009613	-0.010223	-0.19196	-0.051727	-0.00351	-0.001373
58.793	0.005798	-0.005646	0.014191	0.007172	-0.013428	-0.023651	0.071106	0.005951	-0.02655	-0.006409	-0.016327	0.032349	0.007629	-0.082092	0.017242	0.008392	0.015411	0.26306	2.1394	-0.20691	0.031128	-0.31342	0.033264	0.37033	0.053711	-0.008545	-0.006409	-0.004425	0.028839	0.24445	-0.005493	-0.005951
58.794	0.006409	-0.081635	0.018311	0.003357	0.002747	-0.029449	0.073853	0.005035	-0.024719	0.000458	0.048218	0.031891	0.024109	-0.054016	0.082703	-0.004578	0.032654	0.082092	0.69061	-0.31387	-0.036011	-0.27603	0.22232	0.030975	0.075836	-0.003662	-0.027466	-0.014191	0.049133	0.19562	-0.002441	-0.010223
58.795	0.008087	-0.057983	0.001984	-0.012207	-0.000763	-0.025787	0.04776	0.003052	-0.021667	-0.005035	0.04303	0.03067	0.001526	-0.016937	0.40817	0.002899	0.02594	0.090942	-0.26489	-0.22003	-0.029907	-0.16663	0.28427	0.30106	0.099945	-0.005341	-0.000305	-0.018311	0.027771	-0.021973	-0.001373	-0.011139
58.796	0.002594	-0.041199	-0.001373	-0.005493	-0.010071	-0.017242	0.027771	0.009613	-0.014038	-0.003815	0.046234	0.025024	-0.020752	-0.018616	0.10819	-0.005188	0.006561	0.11978	-0.55756	-0.16251	-0.13245	-0.024414	0.12436	0.55161	0.094452	-0.007324	0.029755	-0.016632	0.12375	0.097656	-0.002441	-0.006409
58.797	0.005188	-0.05661	-0.009155	-0.003967	0.002289	-0.013275	0.050201	0.003357	-0.027924	-0.003662	0.059814	0.026245	-0.029297	-0.00946	-0.004883	0.009613	0.002441	-0.042725	-1.0344	0.003967	-0.081329	0.016937	-0.064392	0.43396	0.18021	-0.00412	0.05249	-0.006561	0.38956	0.02594	-0.001526	-0.00946
58.798	0.007629	-0.061798	-0.007019	-0.003815	-0.009155	-0.006714	0.027771	0.003967	-0.012054	-0.001373	0.063324	0.023651	-0.010223	0.056152	-0.10529	0.004883	-0.000916	-0.25055	-1.3036	0.18997	0.044556	-0.001984	-0.15503	0.38696	0.24643	-0.00351	0.03067	0.005188	0.4184	-0.074768	-0.002441	-0.000153
58.799	-0.007019	-0.06485	-0.048065	-0.000763	-0.015106	-0.010529	-0.004883	0.006256	-0.014038	-0.012512	0.083923	0.020599	-0.023651	0.029449	0.029297	0.009918	-0.012207	-0.39612	-1.2566	0.31281	0.18112	0.003204	-0.085449	0.34607	0.25925	-0.001526	0.035858	0.010986	-0.21271	-0.033569	0.001373	0.000763
58.8	0.005646	-0.074005	-0.11047	0.000305	-0.00824	-0.010223	-0.034637	0.005798	-0.021057	-0.003662	0.065155	0.023346	-0.009155	-0.021057	0.069427	0.006866	-0.007629	-0.44113	-1.236	0.22308	0.12039	-0.068665	-0.084381	0.096741	0.11414	-0.006409	0.10788	0.016022	-0.7782	0.005188	-0.001068	0
58.801	0.012665	-0.064545	-0.10666	-0.010071	-0.006866	-0.02121	0.005646	-0.000763	-0.023804	-0.027008	0.002289	0.021362	0.006104	-0.053558	0.054779	0.003357	0.009155	-0.34073	-0.37994	-0.00824	0.023956	-0.083313	0.022583	-0.1889	-0.041962	-0.006104	0.18814	0.005188	-0.75058	0.02655	-0.007477	-0.007019
58.802	0.000458	-0.041199	-0.023193	0.010376	0.003052	-0.031891	-0.010529	0.000305	-0.026703	-0.031586	-0.036469	0.023804	0.045013	-0.02533	0.034485	0.011902	-0.02533	-0.27161	0.33203	-0.076141	-0.12848	-0.058136	0.19211	-0.23575	-0.061798	0.016174	0.050964	0.001373	-0.28397	-0.029602	-0.001221	-0.003815
58.803	-0.005493	-0.039978	0.044556	0.021057	0.005493	-0.040436	-0.029602	0.003357	-0.020752	-0.019989	0.018921	0.023499	0.024109	-0.015717	0.024872	0.01236	-0.033569	-0.27451	0.26535	-0.074921	-0.14679	-0.11475	0.22034	-0.21164	-0.056458	0.023651	-0.11353	-0.00351	0.50522	-0.023193	-0.005951	-0.000458
58.804	0.006561	-0.080719	0.11307	0.010529	-0.014191	-0.024414	-0.036316	-0.004425	-0.022125	-0.011292	-0.021362	0.026855	0.026398	0.001678	-0.010376	0.014038	-0.035858	-0.31723	-0.58334	0.020752	-0.16861	-0.13031	0.090942	-0.38498	-0.1181	0.001526	-0.055084	0.001373	0.32089	0.096741	-0.00061	-0.001831
58.805	-0.000458	-0.086517	0.046844	0.044403	0.002747	-0.010223	-0.031433	-0.000305	-0.032959	-0.001068	-0.009003	0.028076	-0.006561	-0.036011	0.035095	0.00412	-0.027618	-0.32028	-0.80734	0.12695	-0.17471	-0.064545	0.159	-0.36438	-0.066376	-0.045929	0.097351	0.008698	-0.54306	0.13809	-0.003967	-0.001831
58.806	0.003357	-0.088043	0.06424	0.035553	-0.003052	-0.014496	-0.000305	0.002441	-0.032349	0.010986	0.005646	0.02243	-0.013123	-0.009003	0.021973	0.018921	-0.032349	-0.32257	-0.031281	0.13992	0.037231	0.080261	0.19547	0.96298	-0.01709	-0.081635	0.12787	0.006714	-1.2401	0.10422	-0.006714	0.00061
58.807	0.005646	-0.081024	0.16861	0.014954	-0.015564	0.009613	-0.005951	0.007019	-0.041199	0.011749	-0.001373	0.014038	-0.00824	-0.023499	0.007629	0.019073	-0.057678	-0.24857	0.084839	0.17136	0.2153	0.098419	0.18799	1.9308	0.000763	-0.074921	0.07843	-0.36575	-0.98129	0.079651	0.002594	-0.000763
58.808	0.011139	-0.042114	0.12878	-0.000458	-0.006714	0.017548	0.008087	0.004883	-0.046692	-0.001526	0.000153	0.016785	0.012665	-0.00061	0.010376	0.020905	-0.049744	-0.12711	-0.013733	0.0737	0.13825	0.056458	0.12299	1.0373	0.44464	-0.029602	0.041351	0.13199	0.17609	-0.016479	0.000305	-0.015869
58.809	0.00473	-0.054474	0.11902	-0.018921	-0.00885	-0.006714	0.006866	-0.006409	-0.027313	-0.004578	-0.000153	0.014038	0.016479	0.016022	-0.007477	0.023499	-0.039825	-0.096588	0.098114	0.001068	0.077972	-0.013428	0.039368	0.055847	0.89615	0.054321	0.049896	0.1506	2.6251	-0.11429	0.001678	-0.021667
58.81	0.025024	-0.085602	0.10376	0.008087	0.000305	-0.004272	0.010071	0.001221	-0.03891	-0.014801	-0.007477	0.00946	0.009308	0.022736	-0.02594	0.00885	-0.036316	-0.17395	0.59387	-0.030823	0.036163	-0.014954	-0.081482	-0.79498	1.0146	0.070343	-0.031891	0.093994	1.0106	-0.074463	-0.004578	-0.017395
58.811	0.006714	-0.088654	0.072327	-0.005493	-0.002441	0.019379	0.000458	0.002289	-0.044098	-0.024567	0.012207	0.020294	0.018921	0.014954	-0.01709	0.019989	-0.038757	-0.14069	0.25238	-0.001068	0.027161	0.096893	-0.29541	-1.4644	0.84701	0.049438	-0.23193	0.032806	-0.42236	-0.006256	-0.008392	-0.007477
58.812	0.005188	-0.065155	0.012512	0	-0.012665	0.03006	-0.001373	0.000458	-0.038147	-0.013885	0.020142	0.013275	-0.00473	0.005646	-0.006104	0.014191	-0.02243	-0.10483	0.1416	-0.070343	0.01236	0.055389	-0.26291	-1.7953	0.35049	0.045013	-0.13519	0.011444	-1.3733	-0.079346	-0.003967	-0.003815
58.813	0.009766	-0.068512	-0.028839	0.005646	-0.014954	0.021362	-0.004883	0.006714	-0.047607	-0.008545	0.007782	0.002899	0.010376	0.009155	0.020447	0.018616	-0.002594	-0.09903	0.75287	-0.28244	-0.000458	0.081635	-0.4393	-1.2119	-0.2475	0.01709	0.013733	-0.001831	0.33569	-0.07431	-0.003204	-0.010681
58.814	0.013275	-0.045013	-0.036011	0.003662	-0.006256	0.023956	0.019836	0.00473	-0.037689	-0.012054	0.000153	0.00885	0.012665	0.013275	0.027161	0.005188	0.001526	0.001984	1.0193	-0.31372	0.000916	0.07019	-0.56839	-0.66238	-0.41306	-0.01297	-0.00412	-0.019836	0.95276	-0.009003	0.005646	-0.011749
58.815	0.000763	-0.063019	-0.043335	0.012054	-0.009918	0.009308	0.01358	0.004425	-0.035858	-0.009003	-0.005188	0.009155	0.022125	0.01236	-0.021667	0.007629	-0.00824	0.015717	-0.21225	-0.15839	0.00885	0.092163	-0.4631	0.071106	-0.44571	-0.00412	-0.036316	-0.015411	0.5928	-0.21545	0	-0.005951
